<svg width="1920" height="1076" viewBox="0 0 1920 1076" fill="none" xmlns="http://www.w3.org/2000/svg">
<g opacity="0.2" clip-path="url(#clip0_2529_457)">
<path d="M30.0975 892C-48.4557 892 -112 955.544 -112 1034.1C-112 1112.46 -48.4557 1176.19 30.0975 1176.19C108.456 1176.19 172.195 1112.65 172.195 1034.1C172 955.544 108.456 892 30.0975 892ZM30.0975 1167.03C-43.3878 1167.03 -102.839 1107.58 -102.839 1034.1C-102.839 960.612 -43.3878 901.161 30.0975 901.161C103.583 901.161 163.034 960.612 163.034 1034.1C163.034 1107.39 103.388 1167.03 30.0975 1167.03Z" fill="white"/>
<path d="M30.0988 922.603C-31.3014 922.603 -81.2012 972.502 -81.2012 1033.9C-81.2012 1095.3 -31.3014 1145.2 30.0988 1145.2C91.4989 1145.2 141.399 1095.5 141.399 1034.1C141.399 972.502 91.4989 922.603 30.0988 922.603ZM30.0988 1128.24C-21.9452 1128.24 -64.243 1085.95 -64.243 1033.9C-64.243 981.859 -21.9452 939.561 30.0988 939.561C82.1427 939.561 124.441 981.859 124.441 1033.9C124.441 1085.95 82.1427 1128.24 30.0988 1128.24Z" fill="white"/>
<path d="M30.098 971.527C-4.40304 971.527 -32.4717 999.596 -32.4717 1034.1C-32.4717 1068.6 -4.59796 1096.67 30.098 1096.67C64.599 1096.67 92.6677 1068.6 92.6677 1034.1C92.4727 999.596 64.599 971.527 30.098 971.527ZM30.098 1067.62C11.5805 1067.62 -3.42843 1052.61 -3.42843 1034.1C-3.42843 1015.58 11.5805 1000.57 30.098 1000.57C48.6155 1000.57 63.6244 1015.58 63.6244 1034.1C63.6244 1052.61 48.6155 1067.62 30.098 1067.62Z" fill="white"/>
</g>
<g opacity="0.8" clip-path="url(#clip1_2529_457)">
<path d="M1768.34 785.264C1768.34 786.784 1767.19 787.923 1765.67 787.923C1764.14 787.923 1763 786.784 1763 785.264C1763 783.745 1764.14 782.605 1765.67 782.605C1767.19 782.605 1768.34 783.872 1768.34 785.264Z" fill="white"/>
<path d="M1791.08 785.264C1791.08 786.784 1789.93 787.923 1788.41 787.923C1786.88 787.923 1785.74 786.784 1785.74 785.264C1785.74 783.745 1786.88 782.605 1788.41 782.605C1789.8 782.605 1791.08 783.872 1791.08 785.264Z" fill="white"/>
<path d="M1813.69 785.264C1813.69 786.784 1812.54 787.923 1811.02 787.923C1809.5 787.923 1808.35 786.784 1808.35 785.264C1808.35 783.745 1809.5 782.605 1811.02 782.605C1812.54 782.605 1813.69 783.872 1813.69 785.264Z" fill="white"/>
<path d="M1836.43 785.264C1836.43 786.784 1835.28 787.923 1833.76 787.923C1832.24 787.923 1831.09 786.784 1831.09 785.264C1831.09 783.745 1832.24 782.605 1833.76 782.605C1835.28 782.605 1836.43 783.872 1836.43 785.264Z" fill="white"/>
<path d="M1859.17 785.264C1859.17 786.784 1858.02 787.923 1856.5 787.923C1854.98 787.923 1853.83 786.784 1853.83 785.264C1853.83 783.745 1854.98 782.605 1856.5 782.605C1857.9 782.605 1859.17 783.872 1859.17 785.264Z" fill="white"/>
<path d="M1881.91 785.264C1881.91 786.784 1880.76 787.923 1879.24 787.923C1877.72 787.923 1876.57 786.784 1876.57 785.264C1876.57 783.745 1877.72 782.605 1879.24 782.605C1880.76 782.605 1881.91 783.872 1881.91 785.264Z" fill="white"/>
<path d="M1904.52 785.264C1904.52 786.784 1903.38 787.923 1901.85 787.923C1900.33 787.923 1899.18 786.784 1899.18 785.264C1899.18 783.745 1900.33 782.605 1901.85 782.605C1903.38 782.605 1904.52 783.872 1904.52 785.264Z" fill="white"/>
<path d="M1768.34 804.131C1768.34 805.65 1767.19 806.79 1765.67 806.79C1764.14 806.79 1763 805.65 1763 804.131C1763 802.611 1764.14 801.472 1765.67 801.472C1767.19 801.472 1768.34 802.611 1768.34 804.131Z" fill="white"/>
<path d="M1791.08 804.131C1791.08 805.65 1789.93 806.79 1788.41 806.79C1786.88 806.79 1785.74 805.65 1785.74 804.131C1785.74 802.611 1786.88 801.472 1788.41 801.472C1789.8 801.472 1791.08 802.611 1791.08 804.131Z" fill="white"/>
<path d="M1813.69 804.131C1813.69 805.65 1812.54 806.79 1811.02 806.79C1809.5 806.79 1808.35 805.65 1808.35 804.131C1808.35 802.611 1809.5 801.472 1811.02 801.472C1812.54 801.472 1813.69 802.611 1813.69 804.131Z" fill="white"/>
<path d="M1836.43 804.131C1836.43 805.65 1835.28 806.79 1833.76 806.79C1832.24 806.79 1831.09 805.65 1831.09 804.131C1831.09 802.611 1832.24 801.472 1833.76 801.472C1835.28 801.472 1836.43 802.611 1836.43 804.131Z" fill="white"/>
<path d="M1859.17 804.131C1859.17 805.65 1858.02 806.79 1856.5 806.79C1854.98 806.79 1853.83 805.65 1853.83 804.131C1853.83 802.611 1854.98 801.472 1856.5 801.472C1857.9 801.472 1859.17 802.611 1859.17 804.131Z" fill="white"/>
<path d="M1881.91 804.131C1881.91 805.65 1880.76 806.79 1879.24 806.79C1877.72 806.79 1876.57 805.65 1876.57 804.131C1876.57 802.611 1877.72 801.472 1879.24 801.472C1880.76 801.472 1881.91 802.611 1881.91 804.131Z" fill="white"/>
<path d="M1904.52 804.131C1904.52 805.65 1903.38 806.79 1901.85 806.79C1900.33 806.79 1899.18 805.65 1899.18 804.131C1899.18 802.611 1900.33 801.472 1901.85 801.472C1903.38 801.472 1904.52 802.611 1904.52 804.131Z" fill="white"/>
<path d="M1768.34 747.659C1768.34 749.178 1767.19 750.318 1765.67 750.318C1764.14 750.318 1763 749.178 1763 747.659C1763 746.14 1764.14 745 1765.67 745C1767.19 745 1768.34 746.14 1768.34 747.659Z" fill="white"/>
<path d="M1791.08 747.659C1791.08 749.178 1789.93 750.318 1788.41 750.318C1786.88 750.318 1785.74 749.178 1785.74 747.659C1785.74 746.14 1786.88 745 1788.41 745C1789.8 745 1791.08 746.14 1791.08 747.659Z" fill="white"/>
<path d="M1813.69 747.659C1813.69 749.178 1812.54 750.318 1811.02 750.318C1809.5 750.318 1808.35 749.178 1808.35 747.659C1808.35 746.14 1809.62 745 1811.02 745C1812.54 745 1813.69 746.14 1813.69 747.659Z" fill="white"/>
<path d="M1836.43 747.659C1836.43 749.178 1835.28 750.318 1833.76 750.318C1832.24 750.318 1831.09 749.178 1831.09 747.659C1831.09 746.14 1832.36 745 1833.76 745C1835.16 745 1836.43 746.14 1836.43 747.659Z" fill="white"/>
<path d="M1859.17 747.659C1859.17 749.178 1858.02 750.318 1856.5 750.318C1854.98 750.318 1853.83 749.178 1853.83 747.659C1853.83 746.14 1854.98 745 1856.5 745C1857.9 745 1859.17 746.14 1859.17 747.659Z" fill="white"/>
<path d="M1881.91 747.659C1881.91 749.178 1880.76 750.318 1879.24 750.318C1877.72 750.318 1876.57 749.178 1876.57 747.659C1876.57 746.14 1877.72 745 1879.24 745C1880.76 745 1881.91 746.14 1881.91 747.659Z" fill="white"/>
<path d="M1904.52 747.659C1904.52 749.178 1903.38 750.318 1901.85 750.318C1900.33 750.318 1899.18 749.178 1899.18 747.659C1899.18 746.14 1900.33 745 1901.85 745C1903.38 745 1904.52 746.14 1904.52 747.659Z" fill="white"/>
<path d="M1768.34 766.525C1768.34 768.045 1767.19 769.184 1765.67 769.184C1764.14 769.184 1763 767.918 1763 766.525C1763 765.006 1764.14 763.866 1765.67 763.866C1767.19 763.866 1768.34 765.006 1768.34 766.525Z" fill="white"/>
<path d="M1791.08 766.525C1791.08 768.045 1789.93 769.184 1788.41 769.184C1786.88 769.184 1785.74 768.045 1785.74 766.525C1785.74 765.006 1786.88 763.866 1788.41 763.866C1789.8 763.866 1791.08 765.006 1791.08 766.525Z" fill="white"/>
<path d="M1813.69 766.525C1813.69 768.045 1812.54 769.184 1811.02 769.184C1809.5 769.184 1808.35 768.045 1808.35 766.525C1808.35 765.006 1809.5 763.866 1811.02 763.866C1812.54 763.866 1813.69 765.006 1813.69 766.525Z" fill="white"/>
<path d="M1836.43 766.525C1836.43 768.045 1835.28 769.184 1833.76 769.184C1832.24 769.184 1831.09 768.045 1831.09 766.525C1831.09 765.006 1832.24 763.866 1833.76 763.866C1835.28 763.866 1836.43 765.006 1836.43 766.525Z" fill="white"/>
<path d="M1859.17 766.525C1859.17 768.045 1858.02 769.184 1856.5 769.184C1854.98 769.184 1853.83 768.045 1853.83 766.525C1853.83 765.006 1854.98 763.866 1856.5 763.866C1857.9 763.866 1859.17 765.006 1859.17 766.525Z" fill="white"/>
<path d="M1881.91 766.525C1881.91 768.045 1880.76 769.184 1879.24 769.184C1877.72 769.184 1876.57 768.045 1876.57 766.525C1876.57 765.006 1877.72 763.866 1879.24 763.866C1880.76 763.866 1881.91 765.006 1881.91 766.525Z" fill="white"/>
<path d="M1904.52 766.525C1904.52 768.045 1903.38 769.184 1901.85 769.184C1900.33 769.184 1899.18 768.045 1899.18 766.525C1899.18 765.006 1900.33 763.866 1901.85 763.866C1903.38 763.866 1904.52 765.006 1904.52 766.525Z" fill="white"/>
<path d="M1768.34 822.87C1768.34 824.389 1767.19 825.529 1765.67 825.529C1764.14 825.529 1763 824.389 1763 822.87C1763 821.35 1764.14 820.211 1765.67 820.211C1767.19 820.211 1768.34 821.477 1768.34 822.87Z" fill="white"/>
<path d="M1791.08 822.87C1791.08 824.389 1789.93 825.529 1788.41 825.529C1786.88 825.529 1785.74 824.389 1785.74 822.87C1785.74 821.35 1786.88 820.211 1788.41 820.211C1789.8 820.211 1791.08 821.477 1791.08 822.87Z" fill="white"/>
<path d="M1813.69 822.87C1813.69 824.389 1812.54 825.529 1811.02 825.529C1809.5 825.529 1808.35 824.389 1808.35 822.87C1808.35 821.35 1809.5 820.211 1811.02 820.211C1812.54 820.211 1813.69 821.477 1813.69 822.87Z" fill="white"/>
<path d="M1836.43 822.87C1836.43 824.389 1835.28 825.529 1833.76 825.529C1832.24 825.529 1831.09 824.389 1831.09 822.87C1831.09 821.35 1832.24 820.211 1833.76 820.211C1835.28 820.211 1836.43 821.477 1836.43 822.87Z" fill="white"/>
<path d="M1859.17 822.87C1859.17 824.389 1858.02 825.529 1856.5 825.529C1854.98 825.529 1853.83 824.389 1853.83 822.87C1853.83 821.35 1854.98 820.211 1856.5 820.211C1857.9 820.211 1859.17 821.477 1859.17 822.87Z" fill="white"/>
<path d="M1881.91 822.87C1881.91 824.389 1880.76 825.529 1879.24 825.529C1877.72 825.529 1876.57 824.389 1876.57 822.87C1876.57 821.35 1877.72 820.211 1879.24 820.211C1880.76 820.211 1881.91 821.477 1881.91 822.87Z" fill="white"/>
<path d="M1904.52 822.87C1904.52 824.389 1903.38 825.529 1901.85 825.529C1900.33 825.529 1899.18 824.389 1899.18 822.87C1899.18 821.35 1900.33 820.211 1901.85 820.211C1903.38 820.211 1904.52 821.477 1904.52 822.87Z" fill="white"/>
<path d="M1768.34 841.736C1768.34 843.256 1767.19 844.395 1765.67 844.395C1764.14 844.395 1763 843.256 1763 841.736C1763 840.217 1764.14 839.077 1765.67 839.077C1767.19 839.077 1768.34 840.217 1768.34 841.736Z" fill="white"/>
<path d="M1791.08 841.736C1791.08 843.256 1789.93 844.395 1788.41 844.395C1786.88 844.395 1785.74 843.256 1785.74 841.736C1785.74 840.217 1786.88 839.077 1788.41 839.077C1789.8 839.077 1791.08 840.217 1791.08 841.736Z" fill="white"/>
<path d="M1813.69 841.736C1813.69 843.256 1812.54 844.395 1811.02 844.395C1809.5 844.395 1808.35 843.256 1808.35 841.736C1808.35 840.217 1809.5 839.077 1811.02 839.077C1812.54 839.077 1813.69 840.217 1813.69 841.736Z" fill="white"/>
<path d="M1833.76 844.395C1835.23 844.395 1836.43 843.205 1836.43 841.736C1836.43 840.268 1835.23 839.077 1833.76 839.077C1832.29 839.077 1831.09 840.268 1831.09 841.736C1831.09 843.205 1832.29 844.395 1833.76 844.395Z" fill="white"/>
<path d="M1859.17 841.736C1859.17 843.256 1858.02 844.395 1856.5 844.395C1854.98 844.395 1853.83 843.256 1853.83 841.736C1853.83 840.217 1854.98 839.077 1856.5 839.077C1857.9 839.077 1859.17 840.217 1859.17 841.736Z" fill="white"/>
<path d="M1881.91 841.736C1881.91 843.256 1880.76 844.395 1879.24 844.395C1877.72 844.395 1876.57 843.256 1876.57 841.736C1876.57 840.217 1877.72 839.077 1879.24 839.077C1880.76 839.077 1881.91 840.217 1881.91 841.736Z" fill="white"/>
<path d="M1904.52 841.736C1904.52 843.256 1903.38 844.395 1901.85 844.395C1900.33 844.395 1899.18 843.256 1899.18 841.736C1899.18 840.217 1900.33 839.077 1901.85 839.077C1903.38 839.077 1904.52 840.217 1904.52 841.736Z" fill="white"/>
<path d="M1768.34 860.601C1768.34 862.121 1767.19 863.26 1765.67 863.26C1764.14 863.26 1763 862.121 1763 860.601C1763 859.082 1764.14 857.942 1765.67 857.942C1767.19 857.942 1768.34 859.082 1768.34 860.601Z" fill="white"/>
<path d="M1791.08 860.601C1791.08 862.121 1789.93 863.26 1788.41 863.26C1786.88 863.26 1785.74 862.121 1785.74 860.601C1785.74 859.082 1786.88 857.942 1788.41 857.942C1789.8 857.942 1791.08 859.082 1791.08 860.601Z" fill="white"/>
<path d="M1813.69 860.601C1813.69 862.121 1812.54 863.26 1811.02 863.26C1809.5 863.26 1808.35 862.121 1808.35 860.601C1808.35 859.082 1809.5 857.942 1811.02 857.942C1812.54 857.942 1813.69 859.082 1813.69 860.601Z" fill="white"/>
<path d="M1836.43 860.601C1836.43 862.121 1835.28 863.26 1833.76 863.26C1832.24 863.26 1831.09 862.121 1831.09 860.601C1831.09 859.082 1832.24 857.942 1833.76 857.942C1835.28 857.942 1836.43 859.082 1836.43 860.601Z" fill="white"/>
<path d="M1859.17 860.601C1859.17 862.121 1858.02 863.26 1856.5 863.26C1854.98 863.26 1853.83 862.121 1853.83 860.601C1853.83 859.082 1854.98 857.942 1856.5 857.942C1857.9 857.942 1859.17 859.082 1859.17 860.601Z" fill="white"/>
<path d="M1881.91 860.601C1881.91 862.121 1880.76 863.26 1879.24 863.26C1877.72 863.26 1876.57 862.121 1876.57 860.601C1876.57 859.082 1877.72 857.942 1879.24 857.942C1880.76 857.942 1881.91 859.082 1881.91 860.601Z" fill="white"/>
<path d="M1904.52 860.601C1904.52 862.121 1903.38 863.26 1901.85 863.26C1900.33 863.26 1899.18 862.121 1899.18 860.601C1899.18 859.082 1900.33 857.942 1901.85 857.942C1903.38 857.942 1904.52 859.082 1904.52 860.601Z" fill="white"/>
<path d="M1768.34 879.341C1768.34 880.86 1767.19 882 1765.67 882C1764.14 882 1763 880.86 1763 879.341C1763 877.821 1764.14 876.682 1765.67 876.682C1767.19 876.682 1768.34 877.948 1768.34 879.341Z" fill="white"/>
<path d="M1791.08 879.341C1791.08 880.86 1789.93 882 1788.41 882C1786.88 882 1785.74 880.86 1785.74 879.341C1785.74 877.821 1786.88 876.682 1788.41 876.682C1789.8 876.682 1791.08 877.948 1791.08 879.341Z" fill="white"/>
<path d="M1813.69 879.341C1813.69 880.86 1812.54 882 1811.02 882C1809.5 882 1808.35 880.86 1808.35 879.341C1808.35 877.821 1809.5 876.682 1811.02 876.682C1812.54 876.682 1813.69 877.948 1813.69 879.341Z" fill="white"/>
<path d="M1836.43 879.341C1836.43 880.86 1835.28 882 1833.76 882C1832.24 882 1831.09 880.86 1831.09 879.341C1831.09 877.821 1832.24 876.682 1833.76 876.682C1835.28 876.682 1836.43 877.948 1836.43 879.341Z" fill="white"/>
<path d="M1859.17 879.341C1859.17 880.86 1858.02 882 1856.5 882C1854.98 882 1853.83 880.86 1853.83 879.341C1853.83 877.821 1854.98 876.682 1856.5 876.682C1857.9 876.682 1859.17 877.948 1859.17 879.341Z" fill="white"/>
<path d="M1881.91 879.341C1881.91 880.86 1880.76 882 1879.24 882C1877.72 882 1876.57 880.86 1876.57 879.341C1876.57 877.821 1877.72 876.682 1879.24 876.682C1880.76 876.682 1881.91 877.948 1881.91 879.341Z" fill="white"/>
<path d="M1904.52 879.341C1904.52 880.86 1903.38 882 1901.85 882C1900.33 882 1899.18 880.86 1899.18 879.341C1899.18 877.821 1900.33 876.682 1901.85 876.682C1903.38 876.682 1904.52 877.948 1904.52 879.341Z" fill="white"/>
</g>
<g opacity="0.3">
<path d="M1761.81 71.2212L1771.47 80.8799L1745.78 106.563L1720.1 80.8799L1729.68 71.2943L1745.71 87.319L1761.81 71.2212Z" fill="white"/>
<path d="M1761.81 36.5386L1771.39 46.1241L1745.71 71.8075L1720.1 46.1973L1729.76 36.5386L1745.78 52.5632L1761.81 36.5386Z" fill="white"/>
<path d="M1761.73 1.78165L1771.39 11.4404L1745.78 37.0506L1720.1 11.3672L1729.68 1.78165L1745.71 17.8063L1761.73 1.78165Z" fill="white"/>
<path d="M1761.81 -32.9761L1771.46 -23.3174L1745.78 2.36601L1720.1 -23.3174L1729.76 -32.9761L1745.78 -16.9514L1761.81 -32.9761Z" fill="white"/>
</g>
<path opacity="0.3" d="M794 804.553C780.071 818.482 757.377 818.482 743.447 804.553C729.518 790.623 729.518 767.929 743.447 754L794 804.553Z" fill="white"/>
<g opacity="0.3">
<path d="M848.486 525.89C859.205 525.89 867.937 517.165 867.937 506.453C867.937 495.742 859.205 487.017 848.486 487.017L848.486 525.89Z" fill="white"/>
<path d="M818.141 525.89C828.861 525.89 837.592 517.165 837.592 506.453C837.592 495.742 828.861 487.017 818.141 487.017L818.141 525.89Z" fill="white"/>
<path d="M787.796 525.89C798.515 525.89 807.247 517.165 807.247 506.453C807.247 495.742 798.515 487.017 787.796 487.017L787.796 525.89Z" fill="white"/>
</g>
<g opacity="0.3">
<path d="M146.301 140.921L146.301 129L178 129L178 160.699L166.169 160.699L166.169 140.921L146.301 140.921Z" fill="white"/>
<path d="M124.898 162.325L124.898 150.494L156.597 150.494L156.597 182.103L144.676 182.103L144.676 162.325L124.898 162.325Z" fill="white"/>
<path d="M103.495 183.819L103.495 171.898L135.103 171.898L135.103 203.597L123.272 203.597L123.272 183.819L103.495 183.819Z" fill="white"/>
<path d="M82.0005 205.222L82.0005 193.301L113.699 193.301L113.699 225L101.778 225L101.778 205.222L82.0005 205.222Z" fill="white"/>
</g>
<defs>
<clipPath id="clip0_2529_457">
<rect width="284" height="284" fill="white" transform="translate(-112 892)"/>
</clipPath>
<clipPath id="clip1_2529_457">
<rect width="187" height="137" fill="white" transform="translate(1763 745)"/>
</clipPath>
</defs>
</svg>
