<svg width="1904" height="1080" viewBox="0 0 1904 1080" fill="none" xmlns="http://www.w3.org/2000/svg">
<g clip-path="url(#clip0_2234_8802)">
<g opacity="0.2" clip-path="url(#clip1_2234_8802)">
<path d="M14.0975 896C-64.4557 896 -128 959.544 -128 1038.1C-128 1116.46 -64.4557 1180.19 14.0975 1180.19C92.4557 1180.19 156.195 1116.65 156.195 1038.1C156 959.544 92.4557 896 14.0975 896ZM14.0975 1171.03C-59.3878 1171.03 -118.839 1111.58 -118.839 1038.1C-118.839 964.612 -59.3878 905.161 14.0975 905.161C87.5827 905.161 147.034 964.612 147.034 1038.1C147.034 1111.39 87.3878 1171.03 14.0975 1171.03Z" fill="white"/>
<path d="M14.0988 926.603C-47.3014 926.603 -97.2012 976.502 -97.2012 1037.9C-97.2012 1099.3 -47.3014 1149.2 14.0988 1149.2C75.4989 1149.2 125.399 1099.5 125.399 1038.1C125.399 976.502 75.4989 926.603 14.0988 926.603ZM14.0988 1132.24C-37.9452 1132.24 -80.243 1089.95 -80.243 1037.9C-80.243 985.859 -37.9452 943.561 14.0988 943.561C66.1427 943.561 108.441 985.859 108.441 1037.9C108.441 1089.95 66.1427 1132.24 14.0988 1132.24Z" fill="white"/>
<path d="M14.098 975.527C-20.403 975.527 -48.4717 1003.6 -48.4717 1038.1C-48.4717 1072.6 -20.598 1100.67 14.098 1100.67C48.599 1100.67 76.6677 1072.6 76.6677 1038.1C76.4727 1003.6 48.599 975.527 14.098 975.527ZM14.098 1071.62C-4.41951 1071.62 -19.4284 1056.61 -19.4284 1038.1C-19.4284 1019.58 -4.41951 1004.57 14.098 1004.57C32.6155 1004.57 47.6244 1019.58 47.6244 1038.1C47.6244 1056.61 32.6155 1071.62 14.098 1071.62Z" fill="white"/>
</g>
<g opacity="0.8" clip-path="url(#clip2_2234_8802)">
<path d="M1752.34 789.264C1752.34 790.784 1751.19 791.923 1749.67 791.923C1748.14 791.923 1747 790.784 1747 789.264C1747 787.745 1748.14 786.605 1749.67 786.605C1751.19 786.605 1752.34 787.872 1752.34 789.264Z" fill="white"/>
<path d="M1775.08 789.264C1775.08 790.784 1773.93 791.923 1772.41 791.923C1770.88 791.923 1769.74 790.784 1769.74 789.264C1769.74 787.745 1770.88 786.605 1772.41 786.605C1773.8 786.605 1775.08 787.872 1775.08 789.264Z" fill="white"/>
<path d="M1797.69 789.264C1797.69 790.784 1796.54 791.923 1795.02 791.923C1793.5 791.923 1792.35 790.784 1792.35 789.264C1792.35 787.745 1793.5 786.605 1795.02 786.605C1796.54 786.605 1797.69 787.872 1797.69 789.264Z" fill="white"/>
<path d="M1820.43 789.264C1820.43 790.784 1819.28 791.923 1817.76 791.923C1816.24 791.923 1815.09 790.784 1815.09 789.264C1815.09 787.745 1816.24 786.605 1817.76 786.605C1819.28 786.605 1820.43 787.872 1820.43 789.264Z" fill="white"/>
<path d="M1843.17 789.264C1843.17 790.784 1842.02 791.923 1840.5 791.923C1838.98 791.923 1837.83 790.784 1837.83 789.264C1837.83 787.745 1838.98 786.605 1840.5 786.605C1841.9 786.605 1843.17 787.872 1843.17 789.264Z" fill="white"/>
<path d="M1865.91 789.264C1865.91 790.784 1864.76 791.923 1863.24 791.923C1861.72 791.923 1860.57 790.784 1860.57 789.264C1860.57 787.745 1861.72 786.605 1863.24 786.605C1864.76 786.605 1865.91 787.872 1865.91 789.264Z" fill="white"/>
<path d="M1888.52 789.264C1888.52 790.784 1887.38 791.923 1885.85 791.923C1884.33 791.923 1883.18 790.784 1883.18 789.264C1883.18 787.745 1884.33 786.605 1885.85 786.605C1887.38 786.605 1888.52 787.872 1888.52 789.264Z" fill="white"/>
<path d="M1752.34 808.131C1752.34 809.65 1751.19 810.79 1749.67 810.79C1748.14 810.79 1747 809.65 1747 808.131C1747 806.611 1748.14 805.472 1749.67 805.472C1751.19 805.472 1752.34 806.611 1752.34 808.131Z" fill="white"/>
<path d="M1775.08 808.131C1775.08 809.65 1773.93 810.79 1772.41 810.79C1770.88 810.79 1769.74 809.65 1769.74 808.131C1769.74 806.611 1770.88 805.472 1772.41 805.472C1773.8 805.472 1775.08 806.611 1775.08 808.131Z" fill="white"/>
<path d="M1797.69 808.131C1797.69 809.65 1796.54 810.79 1795.02 810.79C1793.5 810.79 1792.35 809.65 1792.35 808.131C1792.35 806.611 1793.5 805.472 1795.02 805.472C1796.54 805.472 1797.69 806.611 1797.69 808.131Z" fill="white"/>
<path d="M1820.43 808.131C1820.43 809.65 1819.28 810.79 1817.76 810.79C1816.24 810.79 1815.09 809.65 1815.09 808.131C1815.09 806.611 1816.24 805.472 1817.76 805.472C1819.28 805.472 1820.43 806.611 1820.43 808.131Z" fill="white"/>
<path d="M1843.17 808.131C1843.17 809.65 1842.02 810.79 1840.5 810.79C1838.98 810.79 1837.83 809.65 1837.83 808.131C1837.83 806.611 1838.98 805.472 1840.5 805.472C1841.9 805.472 1843.17 806.611 1843.17 808.131Z" fill="white"/>
<path d="M1865.91 808.131C1865.91 809.65 1864.76 810.79 1863.24 810.79C1861.72 810.79 1860.57 809.65 1860.57 808.131C1860.57 806.611 1861.72 805.472 1863.24 805.472C1864.76 805.472 1865.91 806.611 1865.91 808.131Z" fill="white"/>
<path d="M1888.52 808.131C1888.52 809.65 1887.38 810.79 1885.85 810.79C1884.33 810.79 1883.18 809.65 1883.18 808.131C1883.18 806.611 1884.33 805.472 1885.85 805.472C1887.38 805.472 1888.52 806.611 1888.52 808.131Z" fill="white"/>
<path d="M1752.34 751.659C1752.34 753.178 1751.19 754.318 1749.67 754.318C1748.14 754.318 1747 753.178 1747 751.659C1747 750.14 1748.14 749 1749.67 749C1751.19 749 1752.34 750.14 1752.34 751.659Z" fill="white"/>
<path d="M1775.08 751.659C1775.08 753.178 1773.93 754.318 1772.41 754.318C1770.88 754.318 1769.74 753.178 1769.74 751.659C1769.74 750.14 1770.88 749 1772.41 749C1773.8 749 1775.08 750.14 1775.08 751.659Z" fill="white"/>
<path d="M1797.69 751.659C1797.69 753.178 1796.54 754.318 1795.02 754.318C1793.5 754.318 1792.35 753.178 1792.35 751.659C1792.35 750.14 1793.62 749 1795.02 749C1796.54 749 1797.69 750.14 1797.69 751.659Z" fill="white"/>
<path d="M1820.43 751.659C1820.43 753.178 1819.28 754.318 1817.76 754.318C1816.24 754.318 1815.09 753.178 1815.09 751.659C1815.09 750.14 1816.36 749 1817.76 749C1819.16 749 1820.43 750.14 1820.43 751.659Z" fill="white"/>
<path d="M1843.17 751.659C1843.17 753.178 1842.02 754.318 1840.5 754.318C1838.98 754.318 1837.83 753.178 1837.83 751.659C1837.83 750.14 1838.98 749 1840.5 749C1841.9 749 1843.17 750.14 1843.17 751.659Z" fill="white"/>
<path d="M1865.91 751.659C1865.91 753.178 1864.76 754.318 1863.24 754.318C1861.72 754.318 1860.57 753.178 1860.57 751.659C1860.57 750.14 1861.72 749 1863.24 749C1864.76 749 1865.91 750.14 1865.91 751.659Z" fill="white"/>
<path d="M1888.52 751.659C1888.52 753.178 1887.38 754.318 1885.85 754.318C1884.33 754.318 1883.18 753.178 1883.18 751.659C1883.18 750.14 1884.33 749 1885.85 749C1887.38 749 1888.52 750.14 1888.52 751.659Z" fill="white"/>
<path d="M1752.34 770.525C1752.34 772.045 1751.19 773.184 1749.67 773.184C1748.14 773.184 1747 771.918 1747 770.525C1747 769.006 1748.14 767.866 1749.67 767.866C1751.19 767.866 1752.34 769.006 1752.34 770.525Z" fill="white"/>
<path d="M1775.08 770.525C1775.08 772.045 1773.93 773.184 1772.41 773.184C1770.88 773.184 1769.74 772.045 1769.74 770.525C1769.74 769.006 1770.88 767.866 1772.41 767.866C1773.8 767.866 1775.08 769.006 1775.08 770.525Z" fill="white"/>
<path d="M1797.69 770.525C1797.69 772.045 1796.54 773.184 1795.02 773.184C1793.5 773.184 1792.35 772.045 1792.35 770.525C1792.35 769.006 1793.5 767.866 1795.02 767.866C1796.54 767.866 1797.69 769.006 1797.69 770.525Z" fill="white"/>
<path d="M1820.43 770.525C1820.43 772.045 1819.28 773.184 1817.76 773.184C1816.24 773.184 1815.09 772.045 1815.09 770.525C1815.09 769.006 1816.24 767.866 1817.76 767.866C1819.28 767.866 1820.43 769.006 1820.43 770.525Z" fill="white"/>
<path d="M1843.17 770.525C1843.17 772.045 1842.02 773.184 1840.5 773.184C1838.98 773.184 1837.83 772.045 1837.83 770.525C1837.83 769.006 1838.98 767.866 1840.5 767.866C1841.9 767.866 1843.17 769.006 1843.17 770.525Z" fill="white"/>
<path d="M1865.91 770.525C1865.91 772.045 1864.76 773.184 1863.24 773.184C1861.72 773.184 1860.57 772.045 1860.57 770.525C1860.57 769.006 1861.72 767.866 1863.24 767.866C1864.76 767.866 1865.91 769.006 1865.91 770.525Z" fill="white"/>
<path d="M1888.52 770.525C1888.52 772.045 1887.38 773.184 1885.85 773.184C1884.33 773.184 1883.18 772.045 1883.18 770.525C1883.18 769.006 1884.33 767.866 1885.85 767.866C1887.38 767.866 1888.52 769.006 1888.52 770.525Z" fill="white"/>
<path d="M1752.34 826.87C1752.34 828.389 1751.19 829.529 1749.67 829.529C1748.14 829.529 1747 828.389 1747 826.87C1747 825.35 1748.14 824.211 1749.67 824.211C1751.19 824.211 1752.34 825.477 1752.34 826.87Z" fill="white"/>
<path d="M1775.08 826.87C1775.08 828.389 1773.93 829.529 1772.41 829.529C1770.88 829.529 1769.74 828.389 1769.74 826.87C1769.74 825.35 1770.88 824.211 1772.41 824.211C1773.8 824.211 1775.08 825.477 1775.08 826.87Z" fill="white"/>
<path d="M1797.69 826.87C1797.69 828.389 1796.54 829.529 1795.02 829.529C1793.5 829.529 1792.35 828.389 1792.35 826.87C1792.35 825.35 1793.5 824.211 1795.02 824.211C1796.54 824.211 1797.69 825.477 1797.69 826.87Z" fill="white"/>
<path d="M1820.43 826.87C1820.43 828.389 1819.28 829.529 1817.76 829.529C1816.24 829.529 1815.09 828.389 1815.09 826.87C1815.09 825.35 1816.24 824.211 1817.76 824.211C1819.28 824.211 1820.43 825.477 1820.43 826.87Z" fill="white"/>
<path d="M1843.17 826.87C1843.17 828.389 1842.02 829.529 1840.5 829.529C1838.98 829.529 1837.83 828.389 1837.83 826.87C1837.83 825.35 1838.98 824.211 1840.5 824.211C1841.9 824.211 1843.17 825.477 1843.17 826.87Z" fill="white"/>
<path d="M1865.91 826.87C1865.91 828.389 1864.76 829.529 1863.24 829.529C1861.72 829.529 1860.57 828.389 1860.57 826.87C1860.57 825.35 1861.72 824.211 1863.24 824.211C1864.76 824.211 1865.91 825.477 1865.91 826.87Z" fill="white"/>
<path d="M1888.52 826.87C1888.52 828.389 1887.38 829.529 1885.85 829.529C1884.33 829.529 1883.18 828.389 1883.18 826.87C1883.18 825.35 1884.33 824.211 1885.85 824.211C1887.38 824.211 1888.52 825.477 1888.52 826.87Z" fill="white"/>
<path d="M1752.34 845.736C1752.34 847.256 1751.19 848.395 1749.67 848.395C1748.14 848.395 1747 847.256 1747 845.736C1747 844.217 1748.14 843.077 1749.67 843.077C1751.19 843.077 1752.34 844.217 1752.34 845.736Z" fill="white"/>
<path d="M1775.08 845.736C1775.08 847.256 1773.93 848.395 1772.41 848.395C1770.88 848.395 1769.74 847.256 1769.74 845.736C1769.74 844.217 1770.88 843.077 1772.41 843.077C1773.8 843.077 1775.08 844.217 1775.08 845.736Z" fill="white"/>
<path d="M1797.69 845.736C1797.69 847.256 1796.54 848.395 1795.02 848.395C1793.5 848.395 1792.35 847.256 1792.35 845.736C1792.35 844.217 1793.5 843.077 1795.02 843.077C1796.54 843.077 1797.69 844.217 1797.69 845.736Z" fill="white"/>
<path d="M1817.76 848.395C1819.23 848.395 1820.43 847.205 1820.43 845.736C1820.43 844.268 1819.23 843.077 1817.76 843.077C1816.29 843.077 1815.09 844.268 1815.09 845.736C1815.09 847.205 1816.29 848.395 1817.76 848.395Z" fill="white"/>
<path d="M1843.17 845.736C1843.17 847.256 1842.02 848.395 1840.5 848.395C1838.98 848.395 1837.83 847.256 1837.83 845.736C1837.83 844.217 1838.98 843.077 1840.5 843.077C1841.9 843.077 1843.17 844.217 1843.17 845.736Z" fill="white"/>
<path d="M1865.91 845.736C1865.91 847.256 1864.76 848.395 1863.24 848.395C1861.72 848.395 1860.57 847.256 1860.57 845.736C1860.57 844.217 1861.72 843.077 1863.24 843.077C1864.76 843.077 1865.91 844.217 1865.91 845.736Z" fill="white"/>
<path d="M1888.52 845.736C1888.52 847.256 1887.38 848.395 1885.85 848.395C1884.33 848.395 1883.18 847.256 1883.18 845.736C1883.18 844.217 1884.33 843.077 1885.85 843.077C1887.38 843.077 1888.52 844.217 1888.52 845.736Z" fill="white"/>
<path d="M1752.34 864.601C1752.34 866.121 1751.19 867.26 1749.67 867.26C1748.14 867.26 1747 866.121 1747 864.601C1747 863.082 1748.14 861.942 1749.67 861.942C1751.19 861.942 1752.34 863.082 1752.34 864.601Z" fill="white"/>
<path d="M1775.08 864.601C1775.08 866.121 1773.93 867.26 1772.41 867.26C1770.88 867.26 1769.74 866.121 1769.74 864.601C1769.74 863.082 1770.88 861.942 1772.41 861.942C1773.8 861.942 1775.08 863.082 1775.08 864.601Z" fill="white"/>
<path d="M1797.69 864.601C1797.69 866.121 1796.54 867.26 1795.02 867.26C1793.5 867.26 1792.35 866.121 1792.35 864.601C1792.35 863.082 1793.5 861.942 1795.02 861.942C1796.54 861.942 1797.69 863.082 1797.69 864.601Z" fill="white"/>
<path d="M1820.43 864.601C1820.43 866.121 1819.28 867.26 1817.76 867.26C1816.24 867.26 1815.09 866.121 1815.09 864.601C1815.09 863.082 1816.24 861.942 1817.76 861.942C1819.28 861.942 1820.43 863.082 1820.43 864.601Z" fill="white"/>
<path d="M1843.17 864.601C1843.17 866.121 1842.02 867.26 1840.5 867.26C1838.98 867.26 1837.83 866.121 1837.83 864.601C1837.83 863.082 1838.98 861.942 1840.5 861.942C1841.9 861.942 1843.17 863.082 1843.17 864.601Z" fill="white"/>
<path d="M1865.91 864.601C1865.91 866.121 1864.76 867.26 1863.24 867.26C1861.72 867.26 1860.57 866.121 1860.57 864.601C1860.57 863.082 1861.72 861.942 1863.24 861.942C1864.76 861.942 1865.91 863.082 1865.91 864.601Z" fill="white"/>
<path d="M1888.52 864.601C1888.52 866.121 1887.38 867.26 1885.85 867.26C1884.33 867.26 1883.18 866.121 1883.18 864.601C1883.18 863.082 1884.33 861.942 1885.85 861.942C1887.38 861.942 1888.52 863.082 1888.52 864.601Z" fill="white"/>
<path d="M1752.34 883.341C1752.34 884.86 1751.19 886 1749.67 886C1748.14 886 1747 884.86 1747 883.341C1747 881.821 1748.14 880.682 1749.67 880.682C1751.19 880.682 1752.34 881.948 1752.34 883.341Z" fill="white"/>
<path d="M1775.08 883.341C1775.08 884.86 1773.93 886 1772.41 886C1770.88 886 1769.74 884.86 1769.74 883.341C1769.74 881.821 1770.88 880.682 1772.41 880.682C1773.8 880.682 1775.08 881.948 1775.08 883.341Z" fill="white"/>
<path d="M1797.69 883.341C1797.69 884.86 1796.54 886 1795.02 886C1793.5 886 1792.35 884.86 1792.35 883.341C1792.35 881.821 1793.5 880.682 1795.02 880.682C1796.54 880.682 1797.69 881.948 1797.69 883.341Z" fill="white"/>
<path d="M1820.43 883.341C1820.43 884.86 1819.28 886 1817.76 886C1816.24 886 1815.09 884.86 1815.09 883.341C1815.09 881.821 1816.24 880.682 1817.76 880.682C1819.28 880.682 1820.43 881.948 1820.43 883.341Z" fill="white"/>
<path d="M1843.17 883.341C1843.17 884.86 1842.02 886 1840.5 886C1838.98 886 1837.83 884.86 1837.83 883.341C1837.83 881.821 1838.98 880.682 1840.5 880.682C1841.9 880.682 1843.17 881.948 1843.17 883.341Z" fill="white"/>
<path d="M1865.91 883.341C1865.91 884.86 1864.76 886 1863.24 886C1861.72 886 1860.57 884.86 1860.57 883.341C1860.57 881.821 1861.72 880.682 1863.24 880.682C1864.76 880.682 1865.91 881.948 1865.91 883.341Z" fill="white"/>
<path d="M1888.52 883.341C1888.52 884.86 1887.38 886 1885.85 886C1884.33 886 1883.18 884.86 1883.18 883.341C1883.18 881.821 1884.33 880.682 1885.85 880.682C1887.38 880.682 1888.52 881.948 1888.52 883.341Z" fill="white"/>
</g>
<g opacity="0.3">
<path d="M1745.81 75.2212L1755.47 84.8799L1729.78 110.563L1704.1 84.8799L1713.68 75.2943L1729.71 91.319L1745.81 75.2212Z" fill="white"/>
<path d="M1745.81 40.5386L1755.39 50.1241L1729.71 75.8075L1704.1 50.1973L1713.76 40.5386L1729.78 56.5632L1745.81 40.5386Z" fill="white"/>
<path d="M1745.73 5.78165L1755.39 15.4404L1729.78 41.0506L1704.1 15.3672L1713.68 5.78165L1729.71 21.8063L1745.73 5.78165Z" fill="white"/>
<path d="M1745.81 -28.9761L1755.46 -19.3174L1729.78 6.36601L1704.1 -19.3174L1713.76 -28.9761L1729.78 -12.9514L1745.81 -28.9761Z" fill="white"/>
</g>
<path opacity="0.3" d="M778 808.553C764.071 822.482 741.377 822.482 727.447 808.553C713.518 794.623 713.518 771.929 727.447 758L778 808.553Z" fill="white"/>
<g opacity="0.3">
<path d="M832.486 529.89C843.205 529.89 851.937 521.165 851.937 510.453C851.937 499.742 843.205 491.017 832.486 491.017L832.486 529.89Z" fill="white"/>
<path d="M802.141 529.89C812.861 529.89 821.592 521.165 821.592 510.453C821.592 499.742 812.861 491.017 802.141 491.017L802.141 529.89Z" fill="white"/>
<path d="M771.796 529.89C782.515 529.89 791.247 521.165 791.247 510.453C791.247 499.742 782.515 491.017 771.796 491.017V529.89Z" fill="white"/>
</g>
<g opacity="0.3">
<path d="M130.301 144.921L130.301 133L162 133L162 164.699L150.169 164.699L150.169 144.921L130.301 144.921Z" fill="white"/>
<path d="M108.898 166.325L108.898 154.494L140.597 154.494L140.597 186.103L128.676 186.103L128.676 166.325L108.898 166.325Z" fill="white"/>
<path d="M87.4946 187.819L87.4946 175.898L119.103 175.898L119.103 207.597L107.272 207.597L107.272 187.819L87.4946 187.819Z" fill="white"/>
<path d="M66.0005 209.222L66.0004 197.301L97.6992 197.301L97.6992 229L85.7783 229L85.7783 209.222L66.0005 209.222Z" fill="white"/>
</g>
</g>
<defs>
<clipPath id="clip0_2234_8802">
<rect width="1920" height="1080" fill="white" transform="translate(-16)"/>
</clipPath>
<clipPath id="clip1_2234_8802">
<rect width="284" height="284" fill="white" transform="translate(-128 896)"/>
</clipPath>
<clipPath id="clip2_2234_8802">
<rect width="187" height="137" fill="white" transform="translate(1747 749)"/>
</clipPath>
</defs>
</svg>
